<?xml version="1.0" standalone="no"?>
<!DOCTYPE svg PUBLIC "-//W3C//DTD SVG 20010904//EN"
 "http://www.w3.org/TR/2001/REC-SVG-20010904/DTD/svg10.dtd">
<svg version="1.0" xmlns="http://www.w3.org/2000/svg"
 width="285.000000pt" height="204.000000pt" viewBox="0 0 285.000000 204.000000"
 preserveAspectRatio="xMidYMid meet">
<metadata>
Created by potrace 1.16, written by Peter Selinger 2001-2019
</metadata>
<g transform="translate(0.000000,204.000000) scale(0.100000,-0.100000)"
fill="#000000" stroke="none">
<path d="M1333 1593 c16 -4 17 -24 17 -243 0 -219 -1 -239 -17 -243 -10 -3 17
-5 60 -6 88 -1 79 -16 78 129 -1 92 13 147 42 164 15 9 21 7 33 -9 23 -30 16
-237 -9 -262 -15 -15 -20 -16 -40 -4 -20 13 -21 13 -8 -2 16 -20 94 -23 130
-4 42 21 63 69 63 146 0 109 -38 161 -118 161 -35 0 -47 -5 -68 -31 l-26 -31
0 121 0 121 -77 -1 c-43 -1 -70 -3 -60 -6z"/>
<path d="M1800 1499 c-43 -17 -70 -50 -70 -85 0 -56 57 -86 94 -48 20 20 21
60 1 68 -35 13 -3 66 40 66 41 0 55 -25 55 -96 0 -86 -23 -130 -116 -221 -65
-63 -74 -76 -74 -107 l0 -36 154 0 153 0 7 38 c3 20 6 62 5 92 l0 55 -15 -30
c-27 -50 -40 -55 -147 -55 l-100 0 104 78 c57 43 114 93 126 111 41 61 25 132
-37 163 -39 20 -138 23 -180 7z"/>
<path d="M1126 1419 c-87 -21 -135 -94 -122 -186 12 -88 64 -133 154 -133 64
0 106 20 127 60 21 41 19 51 -3 15 -28 -45 -47 -57 -89 -53 -28 2 -41 9 -50
28 -16 31 -17 185 -2 228 12 35 43 50 64 32 20 -16 19 -50 0 -50 -20 0 -19
-44 1 -65 42 -41 109 14 88 72 -16 46 -94 70 -168 52z"/>
<path d="M763 1341 c-54 -25 -74 -57 -80 -128 -7 -73 13 -125 58 -152 69 -42
169 -34 208 16 31 38 25 48 -6 13 -37 -40 -84 -49 -112 -21 -19 19 -21 33 -21
126 0 123 11 155 52 155 24 0 28 -4 28 -26 0 -15 -7 -32 -15 -38 -12 -9 -13
-15 -2 -36 10 -19 20 -25 47 -25 68 0 75 89 10 122 -37 19 -119 15 -167 -6z"/>
<path d="M2160 1303 c-46 -24 -68 -63 -55 -99 6 -15 17 -31 26 -37 24 -15 68
0 81 29 10 22 9 28 -5 39 -34 24 -15 75 29 75 30 0 43 -19 50 -72 5 -36 -8
-117 -19 -118 -1 0 -20 -7 -42 -15 l-40 -14 37 -1 c45 0 77 -30 80 -74 5 -89
-12 -151 -43 -161 -22 -7 -61 3 -71 19 -13 20 -9 56 7 56 18 0 20 30 2 54 -9
12 -23 17 -47 14 -67 -6 -74 -93 -11 -131 67 -39 191 -29 251 21 27 23 33 36
37 78 5 46 2 55 -23 83 -19 21 -46 36 -78 44 l-49 13 41 12 c49 15 92 63 92
103 0 18 -11 41 -29 61 -28 31 -33 33 -108 36 -60 2 -86 -1 -113 -15z"/>
<path d="M500 1170 c-25 -4 -35 -8 -22 -8 22 -2 22 -4 22 -146 0 -142 0 -145
-22 -149 -13 -2 24 -4 82 -4 58 0 95 2 83 4 -23 4 -23 7 -23 153 0 145 0 148
-22 154 -25 6 -33 6 -98 -4z"/>
</g>
</svg>
